<svg version="1.1" xmlns="http://www.w3.org/2000/svg" xmlns:xlink="http://www.w3.org/1999/xlink" width="3284.19291" height="394.62554" viewBox="-426.90358,378.1543,3284.19291,394.62554"><g fill="none" fill-rule="nonzero" stroke="none" stroke-width="none" stroke-linecap="butt" stroke-linejoin="miter" stroke-miterlimit="10" stroke-dasharray="" stroke-dashoffset="0" font-family="none" font-weight="none" font-size="none" text-anchor="none" style="mix-blend-mode: normal"><path d="M-338.9703,770.36883l-11.55996,-1.58858l4.17505,-3.91567l2.8459,-8.99148l0.2156,-14.43286l8.75017,-9.10689l0.94215,-1.03373z" fill="#d0d0ce" stroke="none" stroke-width="1"/><path d="M-328.36081,770.17933l-0.05419,-59.81965l6.71194,2.32212l6.92578,5.29977l7.22432,13.5159l5.46726,6.28881l5.72929,14.38721l3.4187,7.54432l5.08841,10.42482z" fill="#d0d0ce" stroke="none" stroke-width="1"/><path d="M-259.53762,702.33982l-0.4944,67.9982l-28.48772,-0.20713l-5.003,-10.46608l-3.3569,-7.57202l-5.61146,-14.43357l-5.41566,-6.3333l-7.11357,-13.57452l-6.88221,-5.35623l-6.69273,-2.37692l0.05948,-8.18011z" fill="#d0d0ce" stroke="none" stroke-width="1"/><path d="M-426.90358,701.4398l28.56283,-0.20921l1.15815,0.78419l10.2675,7.35388l14.31463,-1.85621l9.30665,1.52717l4.47389,3.57042l0.41992,57.32986l-67.99818,0.49806z" fill="#d0d0ce" stroke="none" stroke-width="1"/><path d="M-146.03369,403.36303c14.79247,-2.3249 29.80568,-2.60009 45.03963,-0.82559c18.1598,2.51647 33.73631,7.28298 46.72952,14.29953c8.94991,4.8331 16.78927,10.19089 23.5181,16.07337l-7.89231,5.09619l-8.46876,13.06412l-7.73367,11.02465l-11.80468,2.99278l-8.03755,9.43799l-10.90166,-3.42713l-7.7342,6.22361l-14.97829,-7.5512l-15.25777,4.08691l-12.45613,-6.74407l-11.46743,-0.84183l-14.20763,-7.19283l-8.25945,-8.08638l-6.90793,-13.32427l0.80019,-9.99774l-1.62688,-8.20024l-1.35745,-6.21759c10.11209,-4.72468 21.11355,-8.02144 33.00435,-9.89029z" fill="#d0d0ce" stroke="none" stroke-width="1"/><path d="M-18.64908,701.53104c-2.37635,11.78123 -7.36714,22.4268 -14.97236,31.93671c-7.60522,9.50991 -17.32906,17.36642 -29.1715,23.56955c-11.84244,6.20312 -25.67334,10.43487 -41.49269,12.69523c-15.81935,2.26037 -33.29628,2.00778 -52.4308,-0.75776c-14.84574,-2.14568 -28.49816,-6.13966 -40.95724,-11.98195c-12.45908,-5.84229 -23.44261,-13.1553 -32.95059,-21.93903c-9.50798,-8.78373 -17.22241,-18.90803 -23.14331,-30.37288c-5.9209,-11.46486 -9.57724,-24.0338 -10.96903,-37.70684l83.9693,-21.71189c-0.70749,0.23454 -0.29898,2.65116 1.22555,7.24986c1.52452,4.5987 3.92053,9.57596 7.18801,14.93176c3.26748,5.35581 7.51372,10.34788 12.73873,14.97622c5.22501,4.62834 11.20808,6.92447 17.94924,6.88839c5.70376,0.15078 11.58728,-1.52484 17.65058,-5.02687c6.0633,-3.50202 9.59754,-9.89555 10.60272,-19.18058c0.48068,-5.65607 -0.99519,-11.17393 -4.42763,-16.55358c-3.43243,-5.37965 -8.56111,-11.25706 -15.38603,-17.63222c-15.204,-13.64855 -29.3735,-25.71619 -42.5085,-36.20293c-13.135,-10.48674 -24.39592,-21.12361 -33.78276,-31.91062c-9.38684,-10.78701 -16.29745,-22.39491 -20.73184,-34.82371c-4.43439,-12.4288 -5.38802,-27.38569 -2.86089,-44.87068c2.3364,-16.16536 7.68577,-29.87448 16.0481,-41.12735c8.36233,-11.25287 18.58295,-20.21637 30.66187,-26.89051c2.36938,-1.30919 4.79121,-2.53303 7.26551,-3.67154l1.32111,6.22541l1.57896,8.2096l-0.85857,9.99289l6.82999,13.36439l8.21208,8.13449l14.16538,7.27569l11.46232,0.9088l12.41653,6.81671l15.28138,-3.99772l14.93393,7.63856l7.77042,-6.17833l10.88145,3.49075l8.09254,-9.39088l11.82196,-2.92378l7.79793,-10.97929l8.54492,-13.01444l7.92194,-5.05001c3.02431,2.67524 5.82135,5.45625 8.39111,8.34301c8.25794,9.27666 14.29901,19.3275 18.12321,30.15252c3.8242,10.82502 5.84583,21.30532 6.06491,31.44089l-76.89245,18.18796c-0.46522,-3.772 -1.36569,-8.02791 -2.70142,-12.76773c-1.33573,-4.73981 -3.46143,-9.257 -6.3771,-13.55157c-2.91567,-4.29457 -6.57459,-8.10717 -10.97676,-11.4378c-4.40217,-3.33063 -9.73736,-5.44892 -16.00557,-6.35487c-6.59811,-0.95363 -12.91689,0.23808 -18.95635,3.57515c-6.03946,3.33707 -9.65521,9.12942 -10.84725,17.37706c-0.90595,6.2682 0.85215,12.16365 5.2743,17.68634c4.42215,5.52269 11.50448,13.02965 21.247,22.52088c13.93592,10.7709 27.29451,21.45835 40.07577,32.06236c12.78126,10.60401 23.82857,22.1362 33.14196,34.59658c9.31338,12.46037 16.27973,26.01291 20.89905,40.65762c4.61932,14.64471 5.57005,31.36936 2.85219,50.17397z" fill="#d0d0ce" stroke="none" stroke-width="1"/><path d="M7.87869,398.72338l83.9997,-0.22362l0.09374,35.21197l-2.66654,0.00148l-9.10575,2.75975l-9.88085,-3.44466l-11.04292,0.37275l-14.97206,-0.93563l-8.21343,3.51135l-9.09452,2.51079l-8.93011,0.60846l-9.80887,-1.28022l-0.27455,-0.08578z" fill="#d0d0ce" stroke="none" stroke-width="1"/><path d="M191.19384,542.20036l-0.00399,-144l84,-0.00233l0.01031,372l-84,0.00233l-0.00399,-144l-99.5,0.00276l0.00399,144l-84,0.00233l-0.00922,-332.99324l0.27432,0.08651l9.80546,1.30606l8.93168,-0.58493l9.10111,-2.48682l8.22265,-3.4897l14.96955,0.97507l11.04386,-0.34365l9.87174,3.47068l9.11299,-2.73575l2.66653,0.00555l0.00301,108.7879z" fill="#d0d0ce" stroke="none" stroke-width="1"/><path d="M337.93359,429.69371l11.12159,0.20619l14.74381,1.78454l4.04327,9.6005l10.31387,6.92521l2.14566,16.14099l4.96089,7.70644l9.47789,7.28144l-0.95538,16.52086l3.14581,12.73374l10.33493,11.577l-0.87613,15.7036l2.87838,8.99239l-2.36235,9.38782l2.45727,12.1596l-7.93188,9.16088l9.68422,13.41455l-5.8721,13.9621l0.23653,8.18694l-0.37273,11.25675l-9.37231,13.82898l2.29217,8.69961l0.94435,12.89041l-4.8787,12.58006l-7.70061,9.1919l0.32002,9.17999l-7.34912,5.572l-3.16327,9.01901l-4.28201,7.43828l-11.32108,8.48088l-7.67472,3.96092l-8.3552,5.63691l-8.97483,-2.43787l-0.54522,-294.40002z" fill="#d0d0ce" stroke="none" stroke-width="1"/><path d="M567.2384,769.96959l-96.49991,0.12973l-50.16262,-120.93267l-1,0.00134l0.16266,120.99989l-83.99992,0.11292l-0.05934,-44.14023l8.97359,2.44242l8.35806,-5.63267l7.67673,-3.95702l11.32539,-8.47514l4.28579,-7.4361l3.16785,-9.0174l7.35195,-5.56827l-0.31536,-9.18015l7.70527,-9.18799l4.88509,-12.57758l-0.93781,-12.89089l-2.28776,-8.70078l9.37933,-13.82422l0.37845,-11.25656l-0.23237,-8.18706l5.87918,-13.95912l-9.67741,-13.41946l7.93653,-9.15686l-2.4511,-12.16084l2.36712,-9.38661l-2.87381,-8.99385l0.88411,-15.70315l-10.32905,-11.58225l-3.13934,-12.73534l0.96377,-16.52037l-9.47419,-7.28625l-4.95698,-7.70896l-2.13746,-16.14208l-10.31035,-6.93044l-4.03839,-9.60255l-14.7429,-1.79203l-11.12149,-0.21184l-2.8882,2.34115l-0.04498,-33.45918l113.4999,-0.15258c21.33331,-0.02868 39.08767,3.19746 53.26306,9.67841c14.17539,6.48095 25.52037,15.13237 34.03492,25.95427c8.51456,10.8219 14.61491,23.48037 18.30107,37.97543c3.68616,14.49506 5.53999,29.74258 5.5615,45.74256c0.02241,16.66665 -2.70765,31.50367 -8.19017,44.51105c-5.48252,13.00738 -11.96784,23.93278 -19.45596,32.77618c-7.48812,8.84341 -15.06248,15.52026 -22.72309,20.03057c-7.66061,4.5103 -13.65758,6.76837 -17.99091,6.77419z" fill="#d0d0ce" stroke="none" stroke-width="1"/><path d="M604.34352,769.3177c-17.79994,-6.01349 -32.78569,-15.28506 -44.95725,-27.8147c-12.17156,-12.52964 -21.68248,-27.46099 -28.53275,-44.79405c-6.85027,-17.33306 -11.39441,-35.76904 -13.63241,-55.30796l-3.54561,-30.95503l12.53315,-0.71013l13.87802,5.47084l10.58511,-1.22831l14.1722,8.63819l9.35644,12.34392l12.00014,6.69615l3.96107,10.2676l13.67952,6.54888l5.24016,10.4369l0.55141,14.66551l4.24017,8.12026l0.75885,9.25874l6.70102,6.84961l4.25695,7.93192l1.70677,11.87536l-5.35706,8.36149l-4.95056,11.71387l3.02385,13.26908l-12.59053,9.34696c-1.03654,-0.31352 -2.06276,-0.64189 -3.07866,-0.9851z" fill="#d0d0ce" stroke="none" stroke-width="1"/><path d="M871.64998,425.69242l-39.65936,220.46119c-3.89512,21.65244 -10.33623,40.98411 -19.32333,57.99501c-8.98711,17.0109 -20.14137,31.00715 -33.46279,41.98874c-13.32142,10.98159 -28.81824,18.52368 -46.49047,22.62628c-17.67223,4.1026 -37.30505,4.04231 -58.89847,-0.18087l-0.4921,-0.08853c-22.63772,-3.75301 -41.41095,-10.57492 -56.31972,-20.46573l14.74844,-5.32641l0.92433,-13.57784l8.11337,-9.79265l7.53752,-6.46517l1.7844,-11.86394l-1.79312,-8.82167l-4.44531,-8.48883l1.93886,-9.0852l-1.72282,-8.9972l3.69413,-14.20333l-2.01351,-11.50365l-11.21492,-10.20993l-0.83732,-10.97326l-9.56425,-9.86747l-5.40648,-14.515l-11.08523,-12.35262l-10.49057,-1.87114l-11.71538,-9.23468l-12.20695,-2.92822l34.14292,-189.796l85.13345,15.31489l-38.50853,214.06388c-1.59346,8.85782 -2.1962,17.38583 -1.80824,25.58403c0.38796,8.19821 2.0192,15.60402 4.8937,22.21743c2.8745,6.61341 6.95452,12.17363 12.24005,16.68064c5.28553,4.50701 12.02914,7.49823 20.23082,8.97365c8.20168,1.47542 15.56497,1.02193 22.08985,-1.36047c6.52489,-2.3824 12.20487,-6.18686 17.03995,-11.41338c4.83508,-5.22652 8.863,-11.61428 12.08378,-19.16331c3.22078,-7.54902 5.62789,-15.75244 7.22135,-24.61025l38.50853,-214.06388z" fill="#d0d0ce" stroke="none" stroke-width="1"/><path d="M1100.55414,502.80286c3.14406,9.48118 6.04858,16.91476 8.71356,22.30076l-49.97395,24.41471l-0.06712,-8.40504l4.96327,-11.28837l4.11003,-12.39071l6.32489,-13.6601l-0.24828,-9.86982l8.41549,-9.47629l2.59759,-10.22461c7.03316,9.78883 12.088,19.32199 15.16451,28.59947z" fill="#d0d0ce" stroke="none" stroke-width="1"/><path d="M1143.93658,527.32852l-2.95107,12.5879l-6.33673,-2.50754l-8.0626,-10.06083l-0.95674,-4.3114z" fill="#d0d0ce" stroke="none" stroke-width="1"/><path d="M1181.3044,634.78061c-1.72069,10.8697 -4.67368,22.06565 -8.85897,33.58785c-4.18529,11.5222 -9.74556,22.51241 -16.68083,32.97063c-6.93527,10.45822 -15.39376,20.27153 -25.37547,29.43995c-9.98171,9.16841 -21.4063,16.90988 -34.27375,23.22439l-0.44886,0.22027c-20.04929,9.8389 -39.31997,15.21132 -57.81205,16.11728c-18.49208,0.90596 -35.76362,-1.94315 -51.81463,-8.54733c-16.051,-6.60418 -30.88424,-16.59077 -44.49972,-29.95976c-13.61547,-13.36899 -25.42163,-29.48242 -35.41846,-48.34028l-33.92216,-69.12515c-8.81095,-17.95459 -14.48817,-36.33308 -17.03165,-55.1355c-2.54348,-18.80241 -1.55216,-36.83315 2.97395,-54.09222c4.52612,-17.25907 12.8073,-33.2976 24.84356,-48.11559c12.03626,-14.81799 28.22866,-27.21986 48.57719,-37.20561l0.44886,-0.22027c20.78908,-9.08802 39.04774,-13.68533 54.77598,-13.79193c15.72824,-0.10661 29.39017,2.00754 40.9858,6.34245c0.24912,0.09313 0.49737,0.18668 0.74476,0.28066l3.47772,9.9597l-1.78665,12.54705l5.65494,8.093l2.26599,14.88179l3.4122,12.60076l2.09225,12.15252l4.69535,6.97158l-13.7035,23.30157c-3.11156,-2.55743 -6.66782,-5.45358 -10.66879,-8.68847c-4.00097,-3.23488 -8.6032,-5.8034 -13.80668,-7.70555c-5.20349,-1.90215 -10.9729,-2.87679 -17.30825,-2.92392c-6.33535,-0.04713 -13.39319,1.83834 -21.17351,5.65642c-14.96215,7.34246 -24.39734,18.19204 -28.30557,32.54873c-3.90822,14.35669 -1.82398,29.76423 6.25272,46.2226l31.9397,65.08537c3.96493,8.07956 9.01946,14.97463 15.16361,20.6852c6.14414,5.71057 12.74686,9.89653 19.80813,12.55788c7.06128,2.66135 14.46822,3.94632 22.22081,3.85492c7.7526,-0.0914 15.36943,-1.97272 22.85051,-5.64395c10.62036,-4.84048 18.19288,-10.78443 22.71757,-17.83184c4.52469,-7.04742 6.96438,-14.37123 7.31907,-21.97143l-8.15013,-16.60799l-35.46031,17.40163l-31.71943,-64.63651l90.84707,-44.58188l3.47268,2.72837l12.61303,2.67156l6.49066,-2.07685z" fill="#d0d0ce" stroke="none" stroke-width="1"/><path d="M1135.04998,770.10887l0.05709,-20.27663l4.76831,1.84282l12.74659,0.33806l5.56479,8.16326l5.28221,10.01251z" fill="#d0d0ce" stroke="none" stroke-width="1"/><path d="M1520.93869,602.02158l-29.89803,-48.47863l2.22526,-0.82236l6.41343,7.34244l8.03834,7.45331l12.31245,2.76237l11.42248,3.77732l8.95035,4.81073l4.4655,10.4737c-7.80143,5.55243 -15.77802,9.77947 -23.92977,12.68113z" fill="#d0d0ce" stroke="none" stroke-width="1"/><path d="M1548.11724,668.51684c0.87204,11.98683 -1.07921,23.58117 -5.85375,34.78302c-0.80325,1.88455 -1.67681,3.74011 -2.6207,5.56667l-3.17861,-0.8546l-8.3903,-2.29732l-9.24297,-5.87072l-10.8533,-7.74064l-11.51057,-5.11896l-13.23463,-3.81903l-4.07232,-10.55797l-1.9711,-13.30993l-10.21047,-7.87427l-5.21559,-8.24165l-0.61029,-8.6524l-3.79491,-10.91735l1.45182,-13.95777l-2.63624,-13.09592l0.14985,-12.3185l-5.21657,-14.34725l8.51342,-12.98742l-0.13515,-0.56696c14.87129,6.71995 28.36631,14.75625 40.48504,24.10891c12.31531,9.50437 22.66273,20.69063 31.04224,33.55878c8.37951,12.86815 13.78308,28.72436 16.21072,47.56864z" fill="#d0d0ce" stroke="none" stroke-width="1"/><path d="M1521.12422,733.84818c-9.74481,9.1521 -21.93396,16.93836 -36.56745,23.3588c-14.63349,6.42044 -31.53783,10.86458 -50.71301,13.33242c-14.8773,1.9147 -29.10072,1.72876 -42.67026,-0.55784c-13.56955,-2.28659 -26.11206,-6.38578 -37.62755,-12.29756c-11.51549,-5.91178 -21.6627,-13.59604 -30.44164,-23.0528c-8.77894,-9.45675 -15.67242,-20.58452 -20.68045,-33.38329l75.0694,-43.43771c-0.61866,0.4157 0.42304,2.63422 3.12512,6.65553c2.70208,4.02132 6.34524,8.17358 10.92948,12.45679c4.58424,4.28321 10.01382,7.9535 16.28875,11.01086c6.27493,3.05737 12.65463,3.66465 19.13912,1.82185c5.53521,-1.38455 10.75376,-4.57679 15.65563,-9.57673c4.90187,-4.99994 6.59182,-12.10713 5.06984,-21.32157c-1.05394,-5.57776 -3.95568,-10.49761 -8.70522,-14.75954c-4.74954,-4.26193 -11.26668,-8.54844 -19.55141,-12.85952c-18.3076,-9.07063 -35.19459,-16.89573 -50.66097,-23.47532c-15.46638,-6.57959 -29.16762,-13.80645 -41.1037,-21.68059c-11.93608,-7.87414 -21.70684,-17.20325 -29.31228,-27.98732c-7.60544,-10.78407 -12.5357,-24.93718 -14.7908,-42.45933c-2.0849,-16.19972 -0.60844,-30.84129 4.42938,-43.92472c5.03782,-13.08342 12.47988,-24.45977 22.32617,-34.12905c9.84629,-9.66928 21.60091,-17.56767 35.26386,-23.69516c13.66295,-6.12749 28.07709,-10.33517 43.24245,-12.62302c18.18336,-2.34019 34.46488,-1.83098 48.84456,1.52764c14.37968,3.35862 26.79125,8.39889 37.23471,15.1208c10.44346,6.72191 18.95892,14.78423 25.54637,24.18694c0.96503,1.37745 1.8908,2.75814 2.77732,4.14209l-10.67916,3.949l-5.24183,8.70489l-4.3303,11.22451l-3.36,12.16295l-7.83674,7.665l-7.6467,6.04743l0.71277,2.26274l-19.31693,10.64845c-1.45986,-3.50903 -3.46881,-7.36749 -6.02686,-11.57538c-2.55805,-4.20789 -5.81742,-7.98945 -9.7781,-11.34466c-3.96068,-3.35521 -8.50812,-6.04676 -13.6423,-8.07466c-5.13419,-2.02789 -10.84204,-2.63762 -17.12357,-1.82919c-6.61213,0.85098 -12.37977,3.69379 -17.30292,8.52843c-4.92315,4.83464 -6.85286,11.38454 -5.78913,19.64971c0.80843,6.28152 4.08333,11.48943 9.82469,15.62372c5.74136,4.13429 14.57764,9.46665 26.50883,15.99709c16.31417,6.63852 32.04979,13.3515 47.20684,20.13894c0.24194,0.10834 0.48352,0.21703 0.72473,0.32607l0.13507,0.56697l-8.51503,12.98636l5.21479,14.3479l-0.15138,12.31849l2.63461,13.09624l-1.45355,13.95759l3.79355,10.91782l0.60922,8.65248l5.21456,8.2423l10.2095,7.87554l1.96945,13.31018l4.07101,10.55847l13.23416,3.82068l11.50993,5.12039l10.85234,7.74199l9.24224,5.87187l8.39002,2.29836l3.1785,0.85499c-4.66776,9.03007 -11.05433,17.3513 -19.15972,24.96369z" fill="#d0d0ce" stroke="none" stroke-width="1"/><path d="M1535.06548,487.17279l15.91993,6.34455l4.97167,9.17588l12.70083,7.0947l7.94619,12.12857l13.28231,4.12042l-2.0482,13.98915l3.22612,8.57223l9.59531,8.12393l2.72713,14.70806l-6.82549,15.09216l7.54443,15.77325l-3.84482,13.42162l-1.10231,12.94414l-9.02561,12.58963l-11.19001,11.46026l-5.70277,9.96814l-7.75105,12.848l-7.24568,5.68298l-28.39933,-190.00018z" fill="#d0d0ce" stroke="none" stroke-width="1"/><path d="M1846.92592,490.28268c12.77537,9.63275 22.64725,20.62474 29.61563,32.97597c6.96839,12.35122 10.95144,25.47813 11.94917,39.38074c0.99773,13.9026 -0.97244,28.28094 -5.91051,43.135c-4.93806,14.85407 -12.92586,29.60032 -23.96339,44.23877c-10.83685,14.37229 -22.66644,25.90869 -35.48876,34.60921c-12.82233,8.70052 -26.10402,14.54985 -39.84508,17.548c-13.74106,2.99815 -27.55755,2.91276 -41.44948,-0.25617c-13.89193,-3.16893 -27.22558,-9.56977 -40.00095,-19.20252l-22.35689,-16.85732l-78.86818,104.59833l-68.26838,-51.47503l60.42704,-80.14091l9.13158,1.18756l14.5977,-3.47233l11.10781,-2.91582l16.01723,-0.04637l15.30642,-2.38193l10.0076,-8.28335l12.26991,-6.66123l5.9674,-16.43485l15.5503,-5.70514l8.58285,-12.25149l-0.92717,-12.53829l3.8555,-8.3082l11.41595,-8.34071l-6.36698,-12.36362l3.08553,-14.16769l-3.83749,-14.0328l3.0631,-9.97656l-6.62829,-15.8039l-6.53916,-0.89623l47.8747,-63.49346z" fill="#d0d0ce" stroke="none" stroke-width="1"/><path d="M1943.67034,398.24894l46.08857,0.85568l0.02662,0.0146l-1.71179,13.15961l-5.12514,12.82876l2.21685,13.73293l-1.42304,12.54354l-9.8448,5.98179l-2.26603,12.19102l-3.88389,13.55971l-8.96494,8.05138l-10.44252,11.13516l-9.12825,6.08571l-8.74725,4.49151l-16.06126,-4.02764l-7.7208,9.44912l-0.54564,-0.24571z" fill="#d0d0ce" stroke="none" stroke-width="1"/><path d="M2164.89096,770.17166l-95.49999,0.05346l-33.55485,-97.98123l-72.49999,0.04059l-32.94513,98.01846l-95.49999,0.05346l73.5563,-251.55797l0.55023,0.23523l7.5387,-9.59504l16.13534,3.71977l8.65977,-4.65796l9.0102,-6.25915l10.22768,-11.33281l8.80934,-8.22134l3.62388,-13.6315l2.0325,-12.23212l9.72862,-6.16895l1.18291,-12.56845l-2.47906,-13.68803l4.87888,-12.92442l1.45983,-13.18994l-0.02689,-0.01409l65.90347,-0.03689z" fill="#d0d0ce" stroke="none" stroke-width="1"/><path d="M2126.97193,600.32432l15.54892,-75.41373c4.02859,-17.88834 10.70005,-34.97651 20.01436,-51.26451c9.31432,-16.288 21.01656,-30.12668 35.10673,-41.51602c6.41166,-5.18266 13.29982,-9.68567 20.6645,-13.50902l8.13502,11.98132l-0.16604,15.03782l-3.16149,9.99065l-2.31089,12.99946l-4.26511,7.87817l1.40253,13.09542l5.21031,12.46236l-1.26313,14.18043l-1.60402,13.18171l0.55951,9.46156l-2.70196,8.98283l-1.09993,9.37524l-4.39791,11.87601l-13.07064,9.44699l0.51043,12.77741l-11.25702,10.1063l-4.91262,14.28167l-13.2471,0.30737l-7.33156,5.41636l-9.60782,10.17718l-13.65547,3.90317l-16.00568,-4.08177c0.33615,-10.27901 1.30484,-20.65714 2.90605,-31.13438z" fill="#d0d0ce" stroke="none" stroke-width="1"/><path d="M2261.35786,688.4076c13.9731,3.34619 26.33083,1.69151 37.07318,-4.96403c10.74236,-6.65554 19.53982,-15.32544 26.39238,-26.00971l64.84276,51.88369c-3.9469,5.4242 -9.40114,12.28653 -16.36272,20.58699c-6.96158,8.30045 -16.11502,16.06607 -27.46031,23.29686c-11.34529,7.23079 -25.19726,12.77588 -41.5559,16.63527c-16.35864,3.85939 -35.71664,3.92317 -58.07399,0.19134l-0.49318,-0.08232c-24.98763,-4.17086 -45.28909,-11.61487 -60.90438,-22.33201c-15.61529,-10.71714 -27.65437,-23.6254 -36.11724,-38.72477c-8.46287,-15.09937 -13.69215,-31.85564 -15.68785,-50.26882c-0.90308,-8.3322 -1.37693,-16.74846 -1.42154,-25.24877l16.14898,3.47173l13.49759,-4.41832l9.21488,-10.53429l7.12083,-5.69055l13.2259,-0.80962l4.36737,-14.45774l10.86558,-10.52602l-0.99472,-12.74886l12.7029,-9.93597l3.94428,-12.03428l0.74352,-9.41022l2.35929,-9.07885l-0.91799,-9.43353l1.10287,-13.23306l0.72434,-14.21814l-5.67927,-12.25576l-1.89824,-13.03279l3.96322,-8.03428l1.81615,-13.07776l2.78026,-10.10337l-0.40447,-15.0333l-8.58363,-11.66413c8.63982,-4.91004 17.99954,-8.87193 28.07916,-11.88567c18.49623,-5.53026 39.08742,-6.40203 61.77356,-2.61533l0.49318,0.08232c20.05586,3.34767 36.85057,9.02353 50.38414,17.02758c13.53357,8.00405 24.73783,17.30902 33.61279,27.91492c8.87496,10.6059 15.58513,22.03326 20.13052,34.2821c4.54539,12.24883 7.69344,24.26443 9.44416,36.04678l-78.17855,28.01097c-0.98487,-6.2474 -2.68207,-12.78268 -5.09159,-19.60582c-2.40952,-6.82315 -5.66857,-13.1122 -9.77714,-18.86717c-4.10857,-5.75497 -9.03935,-10.63334 -14.79234,-14.63512c-5.75299,-4.00178 -12.10916,-6.41451 -19.06852,-7.2382c-16.98753,-1.48373 -31.49682,2.93781 -43.52787,13.26461c-12.03104,10.3268 -19.55576,24.53178 -22.57415,42.61494l-11.93636,71.51065c-3.01839,18.08315 -0.46042,34.14008 7.67391,48.17078c8.13433,14.0307 20.47574,23.10305 37.02424,27.21706z" fill="#d0d0ce" stroke="none" stroke-width="1"/><path d="M2758.62862,732.69011l48.50147,-68.58285l50.15925,35.47238l-0.49358,2.30537l-2.76584,13.4206l-3.42211,15.02564l-7.63621,12.8995l-8.9251,6.27471l-9.16794,2.7846l-2.71833,8.63996l-8.70443,7.11479l-1.65037,2.2517z" fill="#d0d0ce" stroke="none" stroke-width="1"/><path d="M2534.98407,482.11502l0.05285,59.99998l105.99996,-0.09337l0.07399,83.99997l-105.99996,0.09337l0.05285,59.99998l143.99994,-0.12685l0.07399,83.99997l-227.99991,0.20084l-0.32769,-371.99986l162.86918,-0.14347l-0.04487,2.79139l-2.98922,10.83752l2.77688,8.62132l-5.87078,7.57225l-3.65495,10.27963l1.22663,14.94002l5.8943,14.2386l5.50189,12.54956l0.93003,2.16642z" fill="#d0d0ce" stroke="none" stroke-width="1"/><path d="M1302.76232,702.18071l-0.01096,68l-69,-0.01112l0.01096,-68l12.54603,0.00202l0.2188,1.52691l6.28566,11.8771l13.58051,11.26495l-9.58051,-11.26431l-4.28566,-11.87678l-0.01279,-1.52688z" fill="#d0d0ce" stroke="none" stroke-width="1"/><path d="M1246.30836,702.17161l6.20601,0.001" fill="none" stroke="none" stroke-width="1"/><path d="" fill="none" stroke="#00bb31" stroke-width="6" opacity="0"/><path d="M1233.58442,701.01824l0.22836,68.99962l-67.99963,0.22505l-0.13431,-40.58068l9.97996,-5.34344l8.12902,-5.61468l0.25998,-12.74842l1.81358,-4.77951l11.78469,-0.039l2.97928,3.27646l6.1963,9.69197l4.37013,8.40158l12.07563,8.20809l-8.07565,-8.22133l-2.37014,-8.4082l-4.19631,-9.69859l-2.42396,-3.2783z" fill="#d0d0ce" stroke="none" stroke-width="1"/><path d="M1197.64608,701.13718l8.55527,-0.02831" fill="none" stroke="none" stroke-width="1"/><path d="" fill="none" stroke="#00bb31" stroke-width="6" opacity="0"/><path d="M1249.41587,674.17211l34,-34h23.5" fill="none" stroke="#00bb31" stroke-width="6"/><path d="M1249.41136,702.17211l0.00451,-28v-16l34,-34h47l-23.5,50h-23.5" fill="none" stroke="#00bb31" stroke-width="6"/><path d="M1300.91587,640.17211c0,-3.31371 2.68629,-6 6,-6c3.31371,0 6,2.68629 6,6c0,3.31371 -2.68629,6 -6,6c-3.31371,0 -6,-2.68629 -6,-6z" fill="#00bb31" stroke="none" stroke-width="1"/><path d="M1277.41587,674.17211c0,-3.31371 2.68629,-6 6,-6c3.31371,0 6,2.68629 6,6c0,3.31371 -2.68629,6 -6,6c-3.31371,0 -6,-2.68629 -6,-6z" fill="#00bb31" stroke="none" stroke-width="1"/><path d="M1249.41587,674.17211l-3.10752,27.9995l0.2188,1.52691l6.28566,11.8771l13.58051,11.26495l-9.58051,-11.26431l-4.28566,-11.87678l-0.01279,-1.52688" fill="#00bb31" stroke="none" stroke-width="1"/><path d="M1201.85752,681.12313l-25,-25h-23" fill="none" stroke="#00bb31" stroke-width="6"/><path d="M1201.92371,701.12302l-0.06619,-19.99989v-20l-25,-25h-46l23,45h23" fill="none" stroke="#00bb31" stroke-width="6"/><path d="M1147.85752,656.12313c0,-3.31371 2.68629,-6 6,-6c3.31371,0 6,2.68629 6,6c0,3.31371 -2.68629,6 -6,6c-3.31371,0 -6,-2.68629 -6,-6z" fill="#00bb31" stroke="none" stroke-width="1"/><path d="M1170.85752,681.12313c0,-3.31371 2.68629,-6 6,-6c3.31371,0 6,2.68629 6,6c0,3.31371 -2.68629,6 -6,6c-3.31371,0 -6,-2.68629 -6,-6z" fill="#00bb31" stroke="none" stroke-width="1"/><path d="M1201.85752,681.12313l-4.21144,20.01405l2.97928,3.27646l6.1963,9.69197l4.37013,8.40158l12.07563,8.20809l-8.07565,-8.22133l-2.37014,-8.4082l-4.19631,-9.69859l-2.42396,-3.2783" fill="#00bb31" stroke="none" stroke-width="1"/></g></svg>